<?xml version="1.0" standalone="no"?>
<!DOCTYPE svg PUBLIC "-//W3C//DTD SVG 20010904//EN"
 "http://www.w3.org/TR/2001/REC-SVG-20010904/DTD/svg10.dtd">
<svg version="1.0" xmlns="http://www.w3.org/2000/svg"
 width="700.000000pt" height="700.000000pt" viewBox="0 0 700.000000 700.000000"
 preserveAspectRatio="xMidYMid meet">
<metadata>
Created by potrace 1.11, written by Peter Selinger 2001-2013
</metadata>
<g transform="translate(0.000000,700.000000) scale(0.100000,-0.100000)"
fill="#000000" stroke="none">
<path d="M2823 4310 c-104 -23 -175 -148 -143 -253 27 -91 100 -148 193 -149
183 -4 275 215 148 349 -46 48 -124 69 -198 53z"/>
<path d="M5612 4295 c-160 -74 -156 -304 7 -373 133 -56 284 44 283 188 -2
154 -151 249 -290 185z"/>
<path d="M3415 4260 c-110 -23 -177 -142 -145 -258 48 -181 312 -194 385 -20
44 107 -15 237 -124 273 -47 15 -64 16 -116 5z"/>
<path d="M6226 4257 c-49 -12 -117 -79 -133 -129 -49 -161 100 -313 257 -261
173 58 191 295 29 379 -36 18 -105 23 -153 11z"/>
<path d="M2310 4034 c-72 -31 -110 -86 -111 -162 -4 -172 213 -243 318 -105
24 31 28 46 28 103 0 58 -4 72 -28 103 -47 62 -140 89 -207 61z"/>
<path d="M5144 4040 c-115 -26 -167 -168 -98 -270 35 -52 79 -74 145 -75 104
0 174 74 173 182 0 112 -105 189 -220 163z"/>
<path d="M3829 3853 c-141 -59 -173 -251 -58 -347 43 -37 74 -48 130 -48 176
-2 273 205 158 336 -55 63 -158 90 -230 59z"/>
<path d="M6655 3853 c-168 -58 -179 -304 -16 -376 140 -62 292 35 291 185 0
45 -26 108 -58 144 -45 52 -143 73 -217 47z"/>
<path d="M1873 3747 c-67 -20 -118 -107 -102 -175 26 -116 162 -165 248 -88
124 110 14 309 -146 263z"/>
<path d="M4696 3745 c-46 -16 -70 -37 -90 -80 -23 -48 -20 -106 7 -145 65 -98
196 -97 260 0 76 117 -45 270 -177 225z"/>
<path d="M4305 3487 c-39 -13 -53 -24 -72 -61 -33 -63 -7 -146 53 -171 69 -29
122 -14 161 44 25 37 29 72 12 119 -18 53 -96 88 -154 69z"/>
<path d="M1454 3471 c-76 -46 -69 -176 12 -214 44 -21 77 -21 120 -1 56 27 80
101 54 168 -22 59 -124 85 -186 47z"/>
<path d="M1125 3246 c-79 -34 -68 -163 15 -181 66 -15 120 22 125 84 6 76 -69
128 -140 97z"/>
<path d="M3943 3250 c-32 -13 -55 -54 -55 -97 0 -77 98 -122 157 -70 86 75 5
209 -102 167z"/>
<path d="M75 3035 c-32 -31 -33 -75 -2 -102 33 -30 50 -33 86 -16 49 24 57 78
18 121 -27 30 -71 29 -102 -3z"/>
<path d="M2901 3043 c-31 -27 -37 -73 -12 -104 27 -35 63 -41 101 -18 29 18
33 23 33 54 0 36 -4 45 -25 65 -27 25 -69 26 -97 3z"/>
<path d="M831 3040 c-59 -14 -76 -85 -31 -130 43 -43 131 -3 124 55 -6 57 -44
88 -93 75z"/>
<path d="M3631 3029 c-17 -10 -31 -22 -32 -26 0 -5 -2 -17 -4 -27 -5 -25 19
-72 40 -80 44 -17 99 8 109 48 17 70 -52 122 -113 85z"/>
<path d="M444 2949 c-45 -16 -61 -68 -36 -111 30 -51 106 -46 131 9 15 34 14
47 -9 75 -21 28 -56 39 -86 27z"/>
<path d="M3264 2945 c-42 -17 -58 -58 -39 -95 28 -55 81 -65 122 -24 21 21 24
32 20 61 -9 55 -53 79 -103 58z"/>
</g>
</svg>
